<svg width="800" height="600" xmlns="http://www.w3.org/2000/svg">

 <g>
  <title>Layer 1</title>
  <path id="svg_2" d="m354.11452,448.36235c-8.95047,-4.95584 2.72921,-14.86426 7.15105,-19.24728c2.97849,-3.37549 -17.06994,0.47351 -8.60567,-11.24419c9.28654,-9.57272 5.77857,-25.76764 -3.50394,-33.29564c-12.77468,-10.59087 -29.16542,-19.65517 -33.88486,-39.4312c-4.77205,-12.31761 6.54495,-25.29057 -0.73408,-36.4137c-5.85897,-14.4422 0.98597,-29.5024 5.2406,-42.88085c1.9566,-18.50638 -10.02916,-33.14141 -16.62059,-48.34542c-8.16169,-14.5293 -12.86645,-31.45928 -13.54252,-49.10233c-1.77495,-7.5308 0.18933,-19.22593 7.27704,-9.07289c14.84273,14.59284 31.13755,28.43968 41.52571,48.41375c1.96637,7.2148 9.8401,28.12534 10.27977,9.18965c0.20592,-26.02578 6.6798,-54.41079 23.26862,-71.85137c11.28342,-12.62392 17.36853,9.48005 17.895,20.71245c2.93686,22.10065 -1.93134,44.01704 -7.35622,64.8941c-1.99153,9.70224 -7.17798,36.28993 7.61384,26.4866c34.07503,-16.15302 75.35945,0.812 97.55445,35.51209c10.20285,16.80136 14.67104,38.38719 14.57017,59.11323c-5.25367,12.17645 14.26653,-0.2281 7.19336,13.81985c-4.1639,15.56179 -15.92855,24.0058 -24.16935,35.75175c-8.38569,9.41219 -2.16376,29.53585 -16.03126,32.50106c-20.23436,7.65895 -41.4821,11.01385 -62.54678,12.96663c-11.78773,2.9652 -17.50838,-13.58478 -6.21026,-20.46502c5.41663,-10.25267 20.91345,-10.97116 25.51786,-12.59536c-11.00304,1.32186 -24.57254,-4.1923 -33.84422,4.17463c-5.61505,11.19214 -10.11221,25.92343 -21.88702,29.118c-5.29158,1.80449 -10.73227,3.25157 -16.15069,1.29144l-0.00001,0.00001z" stroke="red" fill="red"/>
  <ellipse ry="9" rx="9.5" id="svg_3" cy="236" cx="311.5" stroke="red" fill="red"/>
  <ellipse ry="9" rx="11" id="svg_5" cy="234" cx="348" stroke="red" fill="reds"/>
  <path d="m326,257c0,-1 0.07611,-1.38269 1,-1c1.30655,0.5412 2.82376,1.48627 5,2c0.97324,0.22977 3.0535,0.5405 5,1c2.17624,0.51373 4,1 5,1c1,0 3,0 4,0c1,0 2,0 3,0c1,0 2,0 3,0c0,0 1,0 1,0c1,0 1,0 2,0c1,0 1,0 2,0c0,0 1,0 1,0c1,0 0.29291,-0.29291 1,-1c0.70709,-0.70709 1,0 2,0c0,0 0,-1 1,-1c0,0 0.29291,-0.29291 1,-1c0.70709,-0.70709 0.29291,-0.29291 1,-1c0.70709,-0.70711 1,0 2,0c0,0 0,-1 1,-1c0,0 0,0 1,-1c0,0 0,0 0,0c1,0 1,0 1,-1c0,0 0,0 0,0c0,0 1,-1 1,-1l0,0l0,0" id="svg_6" stroke="#000" fill="none"/>
  <polyline stroke-linecap="round" id="svg_7" points="364,349 364,349 " stroke="#000" fill="none"/>
  <polyline stroke-linecap="round" id="svg_8" points="400,489 400,489 " stroke="#000" fill="none"/>
  <polyline stroke-linecap="round" id="svg_9" points="467,289 467,289 " stroke="#000" fill="none"/>
 </g>
</svg>